<svg xmlns="http://www.w3.org/2000/svg" viewBox="0 0 500 500"><g id="freepik--background-complete--inject-2"><g id="freepik--IaQ7Yo--inject-2"><path d="M139.92,316a10.85,10.85,0,0,1-5.28,2.64c-.87.2-1.75.34-2.63.51h-4.59c-1.52-.25-3.06-.45-4.57-.76A46.66,46.66,0,0,1,106.13,311a108,108,0,0,1-29.84-30A46,46,0,0,1,69,264.56c-.32-1.57-.53-3.16-.78-4.74V255.4a36,36,0,0,1,1-4.28,32.06,32.06,0,0,1,1.91-3.79c.38.32.57.46.73.62q9.45,9.45,18.9,18.88a1.06,1.06,0,0,1,.31,1.21,9.28,9.28,0,0,0,2,9.15,185.93,185.93,0,0,0,17.07,17.08,9.26,9.26,0,0,0,9.15,2,.94.94,0,0,1,1.09.19q9.57,9.62,19.17,19.19Z" style="fill:#ebebeb"></path><path d="M151,305c-2.21,2.23-4.44,4.44-6.66,6.66-.17.17-.35.33-.48.44l-19.36-19.35c.45-.41,1-.86,1.48-1.35,1.9-1.88,3.78-3.79,5.68-5.67,1.65-1.64,3.28-1.64,4.92,0L151,300.13C152.6,301.74,152.6,303.37,151,305Z" style="fill:#ebebeb"></path><path d="M101.86,255.56c-2.46,2.4-5,4.74-7.46,7.08L75.31,243.57c.11-.12.24-.28.39-.43q3.39-3.4,6.77-6.78a3,3,0,0,1,4.73,0q7.3,7.29,14.59,14.6A3,3,0,0,1,101.86,255.56Z" style="fill:#ebebeb"></path></g><path d="M444.74,205.68l5.5-8.87-2.72-1.69a2.49,2.49,0,0,1-1.15-2.33,13.55,13.55,0,0,0,.05-1.56,2.49,2.49,0,0,1,1.3-2.26l2.81-1.51-4.93-9.2-2.82,1.51a2.49,2.49,0,0,1-2.59-.17,15.35,15.35,0,0,0-1.33-.82,2.48,2.48,0,0,1-1.31-2.26l.1-3.19L427.21,173l-.09,3.21a2.49,2.49,0,0,1-1.46,2.16l-.68.35c-.23.12-.45.25-.67.38a2.51,2.51,0,0,1-2.6,0l-2.73-1.7-5.51,8.88,2.72,1.69a2.45,2.45,0,0,1,1.15,2.33c0,.52-.06,1,0,1.56a2.48,2.48,0,0,1-1.29,2.25l-2.82,1.51,4.94,9.21,2.82-1.51a2.47,2.47,0,0,1,2.59.16,13.82,13.82,0,0,0,1.32.82,2.47,2.47,0,0,1,1.31,2.25l-.1,3.2,10.44.33.1-3.21a2.48,2.48,0,0,1,1.45-2.15l.69-.35c.23-.12.45-.25.67-.38a2.5,2.5,0,0,1,2.61,0Zm-8.84-6.59a8.56,8.56,0,1,1,3.5-11.58A8.56,8.56,0,0,1,435.9,199.09Z" style="fill:#dbdbdb"></path><path d="M75.44,315.88l-3.66-6.34-1.93,1.12A1.75,1.75,0,0,1,68,310.6a9.81,9.81,0,0,0-1-.55,1.74,1.74,0,0,1-1-1.54v-2.24H58.79v2.24a1.72,1.72,0,0,1-1,1.54c-.32.17-.64.35-.95.55a1.73,1.73,0,0,1-1.82.06l-1.94-1.12-3.65,6.34L51.41,317a1.76,1.76,0,0,1,.86,1.61c0,.18,0,.36,0,.54s0,.36,0,.54a1.74,1.74,0,0,1-.85,1.61l-2,1.13,3.65,6.33,2-1.12a1.71,1.71,0,0,1,1.82.07c.3.19.62.38.94.54a1.73,1.73,0,0,1,1,1.55V332h7.32V329.8a1.75,1.75,0,0,1,1-1.55c.33-.16.64-.35,1-.54a1.73,1.73,0,0,1,1.82-.07l1.94,1.12,3.66-6.33L73.5,321.3a1.71,1.71,0,0,1-.85-1.61c0-.17,0-.36,0-.54s0-.36,0-.54A1.73,1.73,0,0,1,73.5,317Zm-7,3.27a6,6,0,1,1-6-6A6,6,0,0,1,68.45,319.15Z" style="fill:#dbdbdb"></path><path d="M345.55,33.22A28.49,28.49,0,1,0,374,61.71,28.48,28.48,0,0,0,345.55,33.22Zm0,41.79a13.31,13.31,0,1,1,13.31-13.3A13.3,13.3,0,0,1,345.55,75Z" style="fill:#ebebeb"></path><polygon points="351.03 34.4 340.07 34.4 340.68 26.64 350.42 26.64 351.03 34.4" style="fill:#ebebeb"></polygon><polygon points="330.17 38.09 322.43 45.84 317.37 39.92 324.26 33.03 330.17 38.09" style="fill:#ebebeb"></polygon><polygon points="318.04 55.45 318.04 66.4 310.28 65.8 310.28 56.05 318.04 55.45" style="fill:#ebebeb"></polygon><polygon points="321.73 76.3 329.48 84.05 323.56 89.1 316.67 82.21 321.73 76.3" style="fill:#ebebeb"></polygon><polygon points="339.09 88.44 350.04 88.44 349.44 96.19 339.69 96.19 339.09 88.44" style="fill:#ebebeb"></polygon><polygon points="359.94 84.75 367.69 77 372.75 82.91 365.85 89.8 359.94 84.75" style="fill:#ebebeb"></polygon><polygon points="372.08 67.39 372.08 56.43 379.83 57.04 379.83 66.78 372.08 67.39" style="fill:#ebebeb"></polygon><polygon points="368.39 46.53 360.64 38.78 366.55 33.73 373.44 40.62 368.39 46.53" style="fill:#ebebeb"></polygon></g><g id="freepik--Floor--inject-2"><path d="M49.16,459c128.67-.61,273-.62,401.68,0-128.67.62-273,.61-401.68,0Z" style="fill:#263238"></path></g><g id="freepik--Device--inject-2"><path d="M334.52,76.15H165.46a17.26,17.26,0,0,0-17.1,17.42v348A17.27,17.27,0,0,0,165.46,459H334.52a17.29,17.29,0,0,0,17.12-17.42v-348A17.28,17.28,0,0,0,334.52,76.15Zm6.42,354.67c0,9.16-6.86,16.57-15.32,16.57H174.38c-8.48,0-15.34-7.41-15.34-16.57V106.76c0-18.66,6.86-19.57,15.34-19.57h30.3c1.76,0,3.2,2,3.2,4.48v1.07c0,5.81,3.18,5.83,7.08,5.83H285c3.94,0,7.1,0,7.1-5.83V91.67c0-2.48,1.42-4.48,3.21-4.48h30.29c8.46,0,15.32,2.48,15.32,19.57Z" style="fill:#263238"></path><path d="M340.94,106.76V430.82c0,9.16-6.86,16.57-15.32,16.57H174.38c-8.48,0-15.34-7.41-15.34-16.57V106.76c0-18.66,6.86-19.57,15.34-19.57h30.3c1.76,0,3.2,2,3.2,4.48v1.07c0,5.81,3.18,5.83,7.08,5.83H285c3.94,0,7.1,0,7.1-5.83V91.67c0-2.48,1.42-4.48,3.21-4.48h30.29C334.08,87.19,340.94,89.67,340.94,106.76Z" style="fill:#fff"></path><path d="M340.94,106.76v32.49H159V106.76c0-18.66,6.86-19.57,15.34-19.57h30.3c1.76,0,3.2,2,3.2,4.48v1.07c0,5.81,3.18,5.83,7.08,5.83H285c3.94,0,7.1,0,7.1-5.83V91.67c0-2.48,1.42-4.48,3.21-4.48h30.29C334.08,87.19,340.94,89.67,340.94,106.76Z" style="fill:#FFC727"></path><g id="freepik--u5Zjqx--inject-2"><path d="M199.45,94.47a4,4,0,0,0-.29.29l-.17.16a4,4,0,0,0-5.64,0l-.16-.17-.29-.29h0l0,0,.37-.33a4.46,4.46,0,0,1,.86-.54,4.18,4.18,0,0,1,1.13-.38c.19,0,.38,0,.57-.08h.5l.38,0a4.51,4.51,0,0,1,1,.25,4.58,4.58,0,0,1,.71.33,4.48,4.48,0,0,1,.67.47l.31.28Z" style="fill:#fff"></path><path d="M194.27,95.84l-.46-.45a3.32,3.32,0,0,1,4.71,0l-.46.46a2.61,2.61,0,0,0-1.89-.78A2.65,2.65,0,0,0,194.27,95.84Z" style="fill:#fff"></path><path d="M197.6,96.31l-.46.46a1.35,1.35,0,0,0-1.94,0l-.46-.46A2,2,0,0,1,197.6,96.31Z" style="fill:#fff"></path><path d="M196.58,97.18a.41.41,0,0,1-.41.42.42.42,0,0,1-.42-.42.41.41,0,0,1,.42-.41A.41.41,0,0,1,196.58,97.18Z" style="fill:#fff"></path></g><path d="M170.9,95.35a1.21,1.21,0,1,1,1.21,1.21A1.21,1.21,0,0,1,170.9,95.35Z" style="fill:#fff"></path><path d="M174.7,95.35a1.21,1.21,0,1,1,1.21,1.21A1.21,1.21,0,0,1,174.7,95.35Z" style="fill:#fff"></path><path d="M178.5,95.35a1.21,1.21,0,1,1,1.2,1.21A1.2,1.2,0,0,1,178.5,95.35Z" style="fill:#fff"></path><path d="M182.3,95.35a1.21,1.21,0,1,1,1.2,1.21A1.2,1.2,0,0,1,182.3,95.35Z" style="fill:#fff"></path><path d="M186.09,95.35a1.21,1.21,0,1,1,1.21,1.21A1.21,1.21,0,0,1,186.09,95.35Z" style="fill:#fff"></path><path d="M327.3,98h-9.82V93.44h9.82Zm-9.32-.5h8.82V93.94H318Z" style="fill:#fff"></path><rect x="318.3" y="94.21" width="6.33" height="3" style="fill:#fff"></rect><rect x="327.3" y="94.49" width="0.87" height="2.43" style="fill:#fff"></rect><rect x="320.11" y="124.34" width="8.21" height="0.95" style="fill:#fff"></rect><rect x="320.11" y="127.49" width="8.21" height="0.95" style="fill:#fff"></rect><rect x="320.11" y="130.65" width="8.21" height="0.95" style="fill:#fff"></rect><circle cx="322" cy="124.81" r="1.42" style="fill:#fff"></circle><path d="M327.58,128a1.43,1.43,0,1,1-1.43-1.43A1.43,1.43,0,0,1,327.58,128Z" style="fill:#fff"></path><circle cx="323.31" cy="131.12" r="1.42" style="fill:#fff"></circle><path d="M177.3,128.29a10.89,10.89,0,0,1-3,3,10.89,10.89,0,0,1-2.95-3c-1-1.8-.44-3.64,1-3.64,1.57,0,2,2,2,2s.41-2,2-2C177.74,124.65,178.28,126.49,177.3,128.29Z" style="fill:#fff"></path><path d="M238.43,128a3,3,0,0,1,4.9-2.31.47.47,0,0,1,.08.65.47.47,0,0,1-.65.09,2.09,2.09,0,0,0-1.32-.45,2.18,2.18,0,0,0-1.48.59,2,2,0,0,0,0,2.86,2.18,2.18,0,0,0,1.48.59,2.06,2.06,0,0,0,1.32-.46.51.51,0,0,1,.65.09.48.48,0,0,1-.08.66,3.08,3.08,0,0,1-1.89.64A3,3,0,0,1,238.43,128Z" style="fill:#fff"></path><path d="M248.63,129.57h-2l-.4,1.06a.48.48,0,0,1-.43.29l-.15,0a.47.47,0,0,1-.28-.59l1.82-4.84a.44.44,0,0,1,.43-.28.45.45,0,0,1,.44.28l1.81,4.84a.47.47,0,0,1-.27.59l-.16,0a.45.45,0,0,1-.42-.29Zm-.33-.9-.67-1.77-.66,1.77Z" style="fill:#fff"></path><path d="M255.62,130.24a.44.44,0,0,1-.28.57.66.66,0,0,1-.18,0h0a.63.63,0,0,1-.32-.09.73.73,0,0,1-.26-.29,2.11,2.11,0,0,1-.18-1,.7.7,0,0,0-.09-.36.7.7,0,0,0-.25-.23,1.57,1.57,0,0,0-.46-.2h-1v1.78a.46.46,0,0,1-.91,0v-4.84a.45.45,0,0,1,.45-.45h1.47a1.75,1.75,0,0,1,1.12,3.11,1.35,1.35,0,0,1,.28.3,1.52,1.52,0,0,1,.27.89,2.19,2.19,0,0,0,0,.48A.41.41,0,0,1,255.62,130.24Zm-1.14-3.3a.85.85,0,0,0-.85-.85h-1v1.69h1A.85.85,0,0,0,254.48,126.94Z" style="fill:#fff"></path><path d="M261.12,126.09h-1.3v4.38a.45.45,0,0,1-.9,0v-4.38h-1.3a.46.46,0,0,1-.45-.46.45.45,0,0,1,.45-.45h3.5a.45.45,0,0,1,.45.45A.46.46,0,0,1,261.12,126.09Z" style="fill:#fff"></path><path d="M259.55,91.31H240.44a1.18,1.18,0,0,1-1.18-1.18h0A1.18,1.18,0,0,1,240.44,89h19.11a1.18,1.18,0,0,1,1.18,1.18h0A1.18,1.18,0,0,1,259.55,91.31Z" style="fill:#fff"></path><path d="M238.45,432.63a3.94,3.94,0,1,1-3.93-3.94A3.93,3.93,0,0,1,238.45,432.63Z" style="fill:#FFC727"></path><circle cx="250" cy="432.63" r="2.53" style="fill:#dbdbdb"></circle><path d="M268,432.63a2.54,2.54,0,1,1-2.54-2.54A2.54,2.54,0,0,1,268,432.63Z" style="fill:#dbdbdb"></path><rect x="176.74" y="253.81" width="146.52" height="35.98" style="fill:#ebebeb"></rect><rect x="180.39" y="257.93" width="27.75" height="27.75" style="fill:#fff"></rect><path d="M215.87,283.9a6.35,6.35,0,0,1-1.74,1.77,6.35,6.35,0,0,1-1.74-1.77c-.58-1.06-.26-2.15.57-2.15s1.17,1.16,1.17,1.16.24-1.16,1.17-1.16S216.45,282.84,215.87,283.9Z" style="fill:#FFC727"></path><path d="M319.2,282.26a3.42,3.42,0,1,1-3.41-3.42A3.41,3.41,0,0,1,319.2,282.26Z" style="fill:#fff"></path><polygon points="316.3 284.21 313.96 284.21 314.18 280.8 317.42 280.8 317.56 282.71 317.24 282.74 317.11 281.13 314.49 281.13 314.31 283.88 316.3 283.88 316.3 284.21" style="fill:#FFC727"></polygon><path d="M316.56,281.13h-1.49v-.6a.75.75,0,0,1,.75-.74.74.74,0,0,1,.74.74Zm-1.16-.33h.83v-.27a.41.41,0,0,0-.41-.42.42.42,0,0,0-.42.42Z" style="fill:#FFC727"></path><rect x="317.23" y="283.17" width="0.33" height="1.34" style="fill:#FFC727"></rect><rect x="316.72" y="283.68" width="1.34" height="0.33" style="fill:#FFC727"></rect><rect x="212.09" y="258.25" width="20.4" height="1.6" style="fill:#dbdbdb"></rect><rect x="212.09" y="272.84" width="12.36" height="1.6" style="fill:#c7c7c7"></rect><rect x="212.09" y="263.5" width="56.81" height="1.6" style="fill:#dbdbdb"></rect><rect x="212.09" y="266.25" width="50.25" height="1.6" style="fill:#dbdbdb"></rect><path d="M201.64,280.07H186.89l0-.61,0-.45,0-.54,0-.45,0-.53,0-.45,0-.54,0-.45.91-12.52h2.43a3.75,3.75,0,1,0,7.49,0h2.43l.91,12.52,0,.45,0,.54,0,.45,0,.53,0,.45,0,.54,0,.45Z" style="fill:#c7c7c7"></path><polygon points="188.09 263.53 183.58 269.13 187.45 272.37 188.09 263.53" style="fill:#263238"></polygon><polygon points="200.44 263.53 204.95 269.13 201.08 272.37 200.44 263.53" style="fill:#263238"></polygon><rect x="176.74" y="293.18" width="146.52" height="35.98" style="fill:#ebebeb"></rect><rect x="180.39" y="297.29" width="27.75" height="27.75" style="fill:#fff"></rect><path d="M215.87,323.27a6.35,6.35,0,0,1-1.74,1.77,6.35,6.35,0,0,1-1.74-1.77c-.58-1.07-.26-2.16.57-2.16s1.17,1.16,1.17,1.16.24-1.16,1.17-1.16S216.45,322.2,215.87,323.27Z" style="fill:#FFC727"></path><path d="M319.2,321.62a3.42,3.42,0,1,1-3.41-3.41A3.41,3.41,0,0,1,319.2,321.62Z" style="fill:#fff"></path><polygon points="316.3 323.57 313.96 323.57 314.18 320.16 317.42 320.16 317.56 322.08 317.24 322.11 317.11 320.49 314.49 320.49 314.31 323.25 316.3 323.25 316.3 323.57" style="fill:#FFC727"></polygon><path d="M316.56,320.49h-1.49v-.59a.76.76,0,0,1,.75-.75.75.75,0,0,1,.74.75Zm-1.16-.33h.83v-.26a.41.41,0,0,0-.41-.42.42.42,0,0,0-.42.42Z" style="fill:#FFC727"></path><rect x="317.23" y="322.54" width="0.33" height="1.34" style="fill:#FFC727"></rect><rect x="316.72" y="323.04" width="1.34" height="0.33" style="fill:#FFC727"></rect><rect x="212.09" y="297.61" width="20.4" height="1.6" style="fill:#dbdbdb"></rect><rect x="212.09" y="312.21" width="12.36" height="1.6" style="fill:#c7c7c7"></rect><rect x="212.09" y="302.86" width="56.81" height="1.6" style="fill:#dbdbdb"></rect><rect x="212.09" y="305.61" width="50.25" height="1.6" style="fill:#dbdbdb"></rect><polygon points="199.72 299.79 199.72 301.07 194.26 301.06 194.26 301.07 188.81 301.07 188.81 299.79 199.72 299.79" style="fill:#455a64"></polygon><path d="M198.13,301.84h1.59v1.79C198.16,303.55,198.13,301.84,198.13,301.84Z" style="fill:#455a64"></path><path d="M199.72,304.51v18H195.5l-1.23-16.68L193,322.54h-4.22v-18a2.63,2.63,0,0,0,2.39-2.67h2.61c0,1.4,0,2.64.45,2.64h0c.49,0,.45-1.24.45-2.64h2.61A2.63,2.63,0,0,0,199.72,304.51Z" style="fill:#455a64"></path><path d="M188.81,303.63v-1.79h1.59S190.37,303.55,188.81,303.63Z" style="fill:#455a64"></path><rect x="176.74" y="332.54" width="146.52" height="35.98" style="fill:#ebebeb"></rect><rect x="180.39" y="336.66" width="27.75" height="27.75" style="fill:#fff"></rect><path d="M215.87,362.63a6.2,6.2,0,0,1-1.74,1.77,6.2,6.2,0,0,1-1.74-1.77c-.58-1.06-.26-2.15.57-2.15s1.17,1.16,1.17,1.16.24-1.16,1.17-1.16S216.45,361.57,215.87,362.63Z" style="fill:#FFC727"></path><circle cx="315.79" cy="360.99" r="3.42" style="fill:#fff"></circle><polygon points="316.3 362.94 313.96 362.94 314.18 359.53 317.42 359.53 317.56 361.45 317.24 361.47 317.11 359.86 314.49 359.86 314.31 362.61 316.3 362.61 316.3 362.94" style="fill:#FFC727"></polygon><path d="M316.56,359.86h-1.49v-.6a.75.75,0,0,1,.75-.74.74.74,0,0,1,.74.74Zm-1.16-.33h.83v-.27a.41.41,0,0,0-.41-.41.41.41,0,0,0-.42.41Z" style="fill:#FFC727"></path><rect x="317.23" y="361.9" width="0.33" height="1.34" style="fill:#FFC727"></rect><rect x="316.72" y="362.41" width="1.34" height="0.33" style="fill:#FFC727"></rect><rect x="212.09" y="336.98" width="20.4" height="1.6" style="fill:#dbdbdb"></rect><rect x="212.09" y="351.58" width="12.36" height="1.6" style="fill:#c7c7c7"></rect><rect x="212.09" y="342.23" width="56.81" height="1.6" style="fill:#dbdbdb"></rect><rect x="212.09" y="344.98" width="50.25" height="1.6" style="fill:#dbdbdb"></rect><path d="M203.49,357c-.6.2-17.73.25-18.38-.17-.25-.16-.48-10-.22-12.91l11,.09s.07,7.06.2,7.12c1.1.52,6.19,2.94,6.78,3.42S204.09,356.81,203.49,357Z" style="fill:#FFC727"></path><path d="M203.25,356.32c-2.87-.1-14.46-.19-17.3-.06,0,0,0,0,0,0,2.84.16,14.43.16,17.3.09C203.31,356.36,203.31,356.32,203.25,356.32Z" style="fill:#263238"></path><path d="M201.81,353.92a2.33,2.33,0,0,0-1.72.69,2.23,2.23,0,0,0-.65,1.53,0,0,0,0,0,0,0,2.68,2.68,0,0,1,2.34-2.18A0,0,0,1,0,201.81,353.92Z" style="fill:#263238"></path><path d="M187.17,343.93a65.29,65.29,0,0,1,0,11.53,65.29,65.29,0,0,1,0-11.53Z" style="fill:#263238"></path><rect x="216.26" y="165.92" width="67.47" height="67.48" style="fill:#FFC727"></rect><path d="M263.77,208.09H241.18a1,1,0,0,1-.94-.68l-6.45-19.73h-5.27a1,1,0,0,1,0-2h6a1,1,0,0,1,.94.68l6.46,19.73h21.87a1,1,0,1,1,0,2Z" style="fill:#fff"></path><path d="M261.58,215.61a3.17,3.17,0,1,1,3.17-3.17A3.17,3.17,0,0,1,261.58,215.61Zm0-4.37a1.2,1.2,0,1,0,1.2,1.2A1.2,1.2,0,0,0,261.58,211.24Z" style="fill:#fff"></path><path d="M242.92,215.61a3.17,3.17,0,1,1,3.18-3.17A3.17,3.17,0,0,1,242.92,215.61Zm0-4.37a1.2,1.2,0,1,0,1.2,1.2A1.2,1.2,0,0,0,242.92,211.24Z" style="fill:#fff"></path><polygon points="269.2 189.25 264.17 205.02 242.84 205.02 237.81 189.25 254.47 189.26 269.2 189.25" style="fill:#fff"></polygon><circle cx="283.13" cy="167.02" r="12.06" style="fill:#455a64"></circle><polygon points="281.76 173.91 276.57 168.66 278.31 166.94 281.34 170 287.63 160.14 289.7 161.46 281.76 173.91" style="fill:#fff"></polygon><rect x="212.75" y="384.48" width="74.49" height="17.96" style="fill:#FFC727"></rect><path d="M223.64,393.34h-.94V395a.43.43,0,0,1-.85,0v-4.52a.42.42,0,0,1,.42-.42h1.37a1.64,1.64,0,1,1,0,3.28Zm-.94-.85h.94a.79.79,0,1,0,0-1.58h-.94Z" style="fill:#fff"></path><path d="M228.59,392a.41.41,0,0,1-.41.4.75.75,0,0,0-.46.15,1.2,1.2,0,0,0-.35.36,2.53,2.53,0,0,0-.31.65V395a.41.41,0,0,1-.42.41.41.41,0,0,1-.41-.41v-3a.4.4,0,0,1,.41-.4.41.41,0,0,1,.42.4v.05a.57.57,0,0,1,.16-.15,1.64,1.64,0,0,1,1-.3A.4.4,0,0,1,228.59,392Z" style="fill:#fff"></path><path d="M229.75,394.86a1.91,1.91,0,0,1-.53-1.35,2,2,0,0,1,.53-1.34,1.78,1.78,0,0,1,1.32-.58,1.71,1.71,0,0,1,1.28.58,1.93,1.93,0,0,1,.53,1.34,1.87,1.87,0,0,1-.53,1.35,1.71,1.71,0,0,1-1.28.58A1.78,1.78,0,0,1,229.75,394.86Zm.31-1.35a1.25,1.25,0,0,0,.27.81,1,1,0,0,0,.74.29,1,1,0,0,0,.7-.29,1.17,1.17,0,0,0,.3-.81,1.14,1.14,0,0,0-.3-.79,1.06,1.06,0,0,0-.7-.3,1.13,1.13,0,0,0-.74.3A1.22,1.22,0,0,0,230.06,393.51Z" style="fill:#fff"></path><path d="M233.91,393.51a2,2,0,0,1,2-1.92,2,2,0,0,1,1.22.42.43.43,0,0,1,.08.57.4.4,0,0,1-.57.07,1.27,1.27,0,0,0-.73-.24,1.1,1.1,0,1,0,0,2.2,1.24,1.24,0,0,0,.73-.25.41.41,0,0,1,.57.09.42.42,0,0,1-.08.56,2.1,2.1,0,0,1-1.22.41A1.94,1.94,0,0,1,233.91,393.51Z" style="fill:#fff"></path><path d="M238.17,393.5a1.9,1.9,0,0,1,1.87-1.91,1.83,1.83,0,0,1,1.84,1.78v.1a.38.38,0,0,1-.4.31H239a1,1,0,0,0,.26.51,1.19,1.19,0,0,0,.74.34,1.29,1.29,0,0,0,.79-.19.43.43,0,0,1,.58,0,.34.34,0,0,1,0,.49,1.93,1.93,0,0,1-1.37.51A1.9,1.9,0,0,1,238.17,393.5Zm.83-.37h2.17a1.25,1.25,0,0,0-1.13-.81A1.08,1.08,0,0,0,239,393.13Z" style="fill:#fff"></path><path d="M242.83,393.5a1.9,1.9,0,0,1,1.87-1.91,1.83,1.83,0,0,1,1.84,1.78v.1a.38.38,0,0,1-.4.31H243.7a1.08,1.08,0,0,0,.26.51,1.19,1.19,0,0,0,.74.34,1.34,1.34,0,0,0,.8-.19.42.42,0,0,1,.57,0,.34.34,0,0,1,0,.49,1.93,1.93,0,0,1-1.37.51A1.9,1.9,0,0,1,242.83,393.5Zm.83-.37h2.17a1.23,1.23,0,0,0-1.13-.81A1.09,1.09,0,0,0,243.66,393.13Z" style="fill:#fff"></path><path d="M251.23,395a.41.41,0,0,1-.82.08,1.86,1.86,0,0,1-1,.33,1.92,1.92,0,0,1,0-3.83,1.79,1.79,0,0,1,1,.32v-1.44a.42.42,0,0,1,.84,0v3h0Zm-1.86-2.59a1,1,0,0,0-.72.32,1.1,1.1,0,0,0,0,1.53,1,1,0,0,0,1.44,0,1.13,1.13,0,0,0,0-1.53A1,1,0,0,0,249.37,392.42Z" style="fill:#fff"></path><path d="M256.83,392a.43.43,0,0,1-.43.42h-.19v2.14a.42.42,0,0,1,.42.43.41.41,0,0,1-.42.42.85.85,0,0,1-.85-.85v-2.14h-.22a.42.42,0,0,1-.43-.42.42.42,0,0,1,.43-.42h.22v-1.11a.42.42,0,0,1,.43-.42.41.41,0,0,1,.42.42v1.11h.19A.42.42,0,0,1,256.83,392Z" style="fill:#fff"></path><path d="M258.4,394.86a2,2,0,0,1-.52-1.35,2,2,0,0,1,.52-1.34,1.8,1.8,0,0,1,1.32-.58,1.68,1.68,0,0,1,1.28.58,1.9,1.9,0,0,1,.54,1.34,1.84,1.84,0,0,1-.54,1.35,1.68,1.68,0,0,1-1.28.58A1.8,1.8,0,0,1,258.4,394.86Zm.31-1.35a1.21,1.21,0,0,0,.28.81,1,1,0,0,0,.73.29,1,1,0,0,0,.71-.29,1.17,1.17,0,0,0,.3-.81,1.14,1.14,0,0,0-.3-.79,1,1,0,0,0-1.44,0A1.17,1.17,0,0,0,258.71,393.51Z" style="fill:#fff"></path><path d="M265.13,396.45v-2.93h0V392a.41.41,0,0,1,.41-.41.42.42,0,0,1,.42.31,2,2,0,0,1,1-.31,1.91,1.91,0,0,1,0,3.82,1.79,1.79,0,0,1-1-.31v1.35a.42.42,0,0,1-.84,0Zm.84-2.94a1,1,0,0,0,.3.77,1,1,0,0,0,.73.32,1,1,0,0,0,.72-.32,1.12,1.12,0,0,0,.3-.77,1.15,1.15,0,0,0-.3-.77,1,1,0,0,0-.72-.32,1,1,0,0,0-.73.32A1.06,1.06,0,0,0,266,393.51Z" style="fill:#fff"></path><path d="M273.42,393.51V395a.4.4,0,0,1-.4.41.43.43,0,0,1-.4-.33,1.73,1.73,0,0,1-1,.33,1.8,1.8,0,0,1-1.3-.56,2,2,0,0,1,0-2.7,1.77,1.77,0,0,1,1.3-.57,1.73,1.73,0,0,1,1,.34.41.41,0,0,1,.4-.34.4.4,0,0,1,.4.41Zm-.81,0a1.1,1.1,0,0,0-.3-.79,1,1,0,0,0-.71-.31.92.92,0,0,0-.71.31,1.1,1.1,0,0,0-.29.79,1.11,1.11,0,0,0,.29.79,1,1,0,0,0,.71.3,1,1,0,0,0,.71-.3A1.12,1.12,0,0,0,272.61,393.51Z" style="fill:#fff"></path><path d="M278.05,392v2.89a1.82,1.82,0,0,1-1.84,1.83,1.73,1.73,0,0,1-.78-.19.39.39,0,0,1-.2-.54.41.41,0,0,1,.54-.17,1,1,0,0,0,.44.11,1,1,0,0,0,1-.7,1.49,1.49,0,0,1-.73.18,1.61,1.61,0,0,1-1.6-1.61V392a.42.42,0,0,1,.4-.41.4.4,0,0,1,.41.41v1.8a.79.79,0,0,0,1.58,0V392a.4.4,0,0,1,.4-.41A.42.42,0,0,1,278.05,392Z" style="fill:#fff"></path></g><g id="freepik--shopping-bags--inject-2"><path d="M124.79,350l-2-.41c.06-.3,6.12-29.74-1.31-38.73a6.43,6.43,0,0,0-5.37-2.44c-17.4.3-20.88,40.85-20.91,41.26l-2-.16c.14-1.75,3.67-42.77,22.87-43.1a8.41,8.41,0,0,1,6.94,3.17C131.1,319.33,125.05,348.77,124.79,350Z" style="fill:#263238"></path><polygon points="83.8 339.88 154.93 339.62 165.32 459.96 82.94 464.12 83.8 339.88" style="fill:#FFC727"></polygon><polygon points="82.94 464.12 57.81 459.39 73.92 338.37 78.51 341.74 83.8 339.88 82.94 464.12" style="fill:#FFC727"></polygon><polygon points="82.94 464.12 57.81 459.39 73.92 338.37 78.51 341.74 83.8 339.88 82.94 464.12" style="opacity:0.2"></polygon><polygon points="70.13 449.06 57.81 459.39 73.92 338.37 78.51 341.74 70.13 449.06" style="opacity:0.1"></polygon><g style="opacity:0.1"><path d="M82.42,461.43c-1.86-2.2-3.81-4.27-5.75-6.33s-4-4-6-6l-.28-.27-.29.21c-1.85,1.33-3.7,2.66-5.51,4.09S61,456,59.23,457.5c2-1.08,3.87-2.27,5.77-3.49s3.77-2.48,5.64-3.77l-.58-.05c2,2,4,3.91,6.08,5.79S80.27,459.71,82.42,461.43Z"></path><path d="M70.33,450c.92-9,1.71-18,2.48-27s1.44-18,2.16-27.06,1.32-18.05,1.9-27.08l.86-13.56c.24-4.52.52-9,.73-13.57-.47,4.5-.86,9-1.3,13.5L76,368.69c-.77,9-1.44,18-2.17,27.05s-1.31,18.05-1.89,27.09S70.77,440.9,70.33,450Z"></path></g><path d="M106.15,350c-.26-1.25-6.31-30.69,1.73-40.41a8.43,8.43,0,0,1,6.94-3.17c19.2.33,22.73,41.35,22.87,43.1l-2,.16c0-.41-3.52-41-20.91-41.26a6.47,6.47,0,0,0-5.37,2.44c-7.43,9-1.37,38.43-1.31,38.73Z" style="fill:#263238"></path><polygon points="112.32 372.3 195.27 372.1 203.23 464.3 111.66 467.49 112.32 372.3" style="fill:#455a64"></polygon><polygon points="111.66 467.49 92.41 463.87 104.75 371.15 108.27 373.73 112.32 372.3 111.66 467.49" style="fill:#37474f"></polygon><polygon points="111.66 467.49 92.41 463.87 104.75 371.15 108.27 373.73 112.32 372.3 111.66 467.49" style="opacity:0.2"></polygon><polygon points="101.84 455.95 92.41 463.87 104.75 371.15 108.27 373.73 101.84 455.95" style="opacity:0.1"></polygon><g style="opacity:0.1"><path d="M111.26,465.43c-1.42-1.69-2.91-3.27-4.41-4.85s-3-3.09-4.56-4.58l-.22-.21-.23.16c-1.41,1-2.83,2-4.21,3.13s-2.78,2.17-4.13,3.34c1.5-.83,3-1.74,4.41-2.68s2.9-1.9,4.33-2.88l-.44-.05c1.52,1.52,3.08,3,4.65,4.44S109.61,464.11,111.26,465.43Z"></path><path d="M102,456.63c.7-6.89,1.31-13.79,1.9-20.69s1.1-13.82,1.66-20.73,1-13.83,1.45-20.75l.66-10.39c.18-3.46.4-6.93.56-10.4-.36,3.45-.66,6.9-1,10.35l-.9,10.35c-.59,6.91-1.1,13.82-1.65,20.73s-1,13.83-1.46,20.75S102.34,449.7,102,456.63Z"></path></g><path d="M156.54,411.29c-19.9,0-24-33.11-24.14-34.54l2-.23c0,.34,4.14,33.77,23,32.74,4.47-.23,7.94-1.94,10.3-5.07,6.75-9,2.76-26.75,2.72-26.93l2-.45c.17.77,4.24,18.87-3.07,28.58-2.74,3.63-6.7,5.6-11.79,5.87Z" style="fill:#FFC727"></path></g><g id="freepik--character-2--inject-2"><path d="M371,106.45c-6.41.57-10.2,8.25-12.21,15s-1.66,12.41-6.72,15.57c0,0,3.33,7.53,18.36,9.94,12.49,2,19.81-.1,19.81-.1a70.7,70.7,0,0,0,3.31-15.41c.7-8.47-.77-17.42-6.21-21.88C378.26,102.18,371,106.45,371,106.45Z" style="fill:#263238"></path><path d="M371,106.45a9.85,9.85,0,0,0-4.29,1.69,13.13,13.13,0,0,0-3.34,3.14,29,29,0,0,0-4.08,8.27c-1,2.94-1.79,6-2.79,9a23.33,23.33,0,0,1-1.88,4.36,7.62,7.62,0,0,1-3.45,3.2,7.88,7.88,0,0,0,3.05-3.42,23.4,23.4,0,0,0,1.59-4.36c.83-3,1.55-6.08,2.59-9.07a25.81,25.81,0,0,1,4.4-8.42,13.86,13.86,0,0,1,3.66-3.08A9.33,9.33,0,0,1,371,106.45Z" style="fill:#263238"></path><path d="M383.49,107.05a17.3,17.3,0,0,1,7.72,7.38,25.69,25.69,0,0,1,3.09,10.62,42.89,42.89,0,0,1-.78,11.09q-1,5.43-2.52,10.75l1-5.44c.32-1.8.62-3.62.88-5.43a45.72,45.72,0,0,0,.56-10.88,26.35,26.35,0,0,0-2.79-10.34,20.13,20.13,0,0,0-3-4.38A16.76,16.76,0,0,0,383.49,107.05Z" style="fill:#263238"></path><path d="M443.51,459.27c-2.33.73-70.19-.74-72.67-2.39-1-.62,4.86-64.9,4.86-64.9l43,.82-4.89,43s25,11.87,27.57,14S445.83,458.55,443.51,459.27Z" style="fill:#f7a9a0"></path><path d="M443.51,459.27c-2.32.72-70.2-.74-72.67-2.4-.3-.18-.39-6.71.69-15.21,12.3,2.06,56.23,8.81,59.65,6.79,2.39-1.4.28-3.59-1.68-5.06,5.61,2.79,10.84,5.48,11.92,6.39C443.94,451.87,445.83,458.56,443.51,459.27Z" style="fill:#FFC727"></path><path d="M408.94,459c-18.11-.48-36.82-1.28-38.1-2.13-.38-.25.31-10.52,1.27-22.83Z" style="opacity:0.1"></path><path d="M415.06,425.5l-42.26-.6s8.38-101.21,8-103.15c-.45-2.49-30.43-120-30.43-120h40.33s31.8,109.57,32.94,120.13C425.52,338.87,415.06,425.5,415.06,425.5Z" style="fill:#37474f"></path><path d="M376.6,415.36c2.5-.18,5-.15,7.53-.18s5,0,7.51,0c5,0,10,.13,15,.27,1.37,0,2.74.08,4.11.14s2.93.32,4.39.37a.09.09,0,0,1,0,.18c-1.23,0-2.46.2-3.7.23s-2.55,0-3.83,0c-2.5,0-5,0-7.51,0-5,0-10-.11-15-.32-2.83-.11-5.69-.15-8.5-.43A.13.13,0,0,1,376.6,415.36Z" style="fill:#263238"></path><path d="M359.27,211.2c3.61,12.78,6.91,25.67,10.14,38.54s6.46,25.78,9.66,38.67q2.42,9.68,4.82,19.34c1.56,6.28,3.37,12.59,3.76,19.07s-.45,13.24-1,19.8-1.12,13.2-1.69,19.8c-1.16,13.19-2.27,26.4-3.7,39.58-.18,1.64-.36,3.29-.53,4.94,0,.14-.23.14-.22,0,.88-13.21,1.79-26.41,2.84-39.6q.79-9.9,1.61-19.8c.55-6.58,1.31-13.19,1.52-19.8s-1-13.05-2.62-19.49-3.16-12.61-4.74-18.92q-4.83-19.33-9.65-38.67c-3.58-14.43-7.16-28.9-10.32-43.43A.06.06,0,0,1,359.27,211.2Z" style="fill:#263238"></path><path d="M350.4,201.71s12.86,50.43,21.86,85.93l17.16-85.93Z" style="fill:#263238"></path><path d="M394.11,459.43c-2.32.73-70.19-.74-72.67-2.4-.95-.61,2.59-64.93,2.59-64.93l42.48.82-2.06,43s25,11.86,27.58,14S396.44,458.71,394.11,459.43Z" style="fill:#f7a9a0"></path><path d="M394.11,459.43c-2.32.72-70.19-.74-72.67-2.4-.3-.19-.23-6.54,0-15.22,12.31,2.06,56.92,8.81,60.34,6.8,2.38-1.4.27-3.59-1.68-5.07,5.61,2.8,10.84,5.49,11.92,6.39C394.55,452,396.43,458.71,394.11,459.43Z" style="fill:#FFC727"></path><path d="M390.71,201.69s-1.17,19.28-5.78,34.51c-.37,1.26-.77,2.49-1.2,3.68A71.41,71.41,0,0,0,372,245.71s-2.91,73.76-2.86,78.34c.19,17.13-4.19,100.6-4.19,100.6l-42.6-.41s4.41-94.38,4.43-100.66c0-6.07,2.9-44.37,5.47-77.57,0,0-3.79-10.61-3.37-16,1-13,6.84-28.34,6.84-28.34Z" style="fill:#37474f"></path><path d="M377.05,230.9c.1-1.08.2-2.15.31-3.23.18-2,.47-3.93.7-5.89.53-4.46,1.08-8.93,1.81-13.36,0-.1.2-.09.2,0-.08,1.78-.18,3.55-.33,5.32s-.22,3.55-.37,5.33c-.29,3.51-.58,7-1,10.53-.15,1.35-.85,3.79,1.1,4.1,1.55.24,2.58-1.32,2.95-2.6a29.54,29.54,0,0,0,.75-4.87c.22-1.78.39-3.56.54-5.34.33-3.89.7-7.76,1.11-11.64,0-.11.19-.09.2,0,.1,4,.11,7.9-.18,11.85-.15,1.89-.32,3.78-.53,5.66a19.79,19.79,0,0,1-1,5.3,4.26,4.26,0,0,1-3,2.74h-.09a.14.14,0,0,1,.06.11c0,.62.07,1.25,0,1.88s-.11,1.24-.2,1.86a11.77,11.77,0,0,1-.37,1.86,6.69,6.69,0,0,1-.29.86,7.82,7.82,0,0,1-.45.8.11.11,0,0,1-.21-.05h0v-.31s0,0,0-.05h0a5.09,5.09,0,0,1,0-.55c0-.3.08-.6.13-.9.09-.6.22-1.21.35-1.8s.21-1.2.33-1.79.29-1.22.4-1.84a.09.09,0,0,1,0-.06,2.8,2.8,0,0,1-2.78-1.53A4.92,4.92,0,0,1,377.05,230.9Z" style="fill:#263238"></path><path d="M368.59,247.18a33.5,33.5,0,0,1,4-2.65,38.69,38.69,0,0,1,4.57-2.36c3.08-1.34,6.26-2.26,9.44-3.31.09,0,.16.13.06.17-3.08,1.22-6,2.85-9,4.31-1.46.71-3,1.39-4.44,2s-3,1.44-4.51,2A.13.13,0,0,1,368.59,247.18Z" style="fill:#263238"></path><path d="M344.53,220.31a26.34,26.34,0,0,0,6.43-.86c1-.25,1.92-.56,2.87-.87a7.52,7.52,0,0,0,2.59-1.3c1.46-1.26,2.14-3.24,2.78-5a49.31,49.31,0,0,0,1.68-6.08c0-.1.17-.07.17,0a23.68,23.68,0,0,1-.87,6.9c-.52,1.9-1.23,4-2.77,5.36a10.89,10.89,0,0,1-5.88,2.15,26.89,26.89,0,0,1-7-.1C344.39,220.52,344.38,220.31,344.53,220.31Z" style="fill:#263238"></path><path d="M324.27,416c2.49-.17,5-.14,7.52-.18s5,0,7.52,0c5,0,10,.12,15,.26,1.37,0,2.74.08,4.11.15s2.93.32,4.39.37c.11,0,.11.18,0,.18-1.23,0-2.46.19-3.69.23s-2.55,0-3.83,0c-2.51,0-5,0-7.52,0-5,0-10-.11-15-.31-2.82-.12-5.68-.15-8.5-.44A.13.13,0,0,1,324.27,416Z" style="fill:#263238"></path><path d="M329.47,410.44h0a.52.52,0,0,1-.49-.55l9.62-165.16c-.13-.72-2.84-9.95-3.08-14.66-.25-5,4.9-24.4,5.12-25.22a.52.52,0,1,1,1,.26c-.05.2-5.33,20.08-5.08,24.91s3.06,14.51,3.07,14.59S330,409.94,330,409.94A.53.53,0,0,1,329.47,410.44Z" style="fill:#263238"></path><path d="M378.33,156.38c2.29,10.1,12.48,52.4,21,54.77s16.93-3.18,17.2-10.25c.29-7.7-22.7-38.35-28.32-45C382.83,149.59,376.08,146.46,378.33,156.38Z" style="fill:#f7a9a0"></path><path d="M382.76,181.54l24.58-4.35s-16.78-21.73-23.51-26.73c-7.59-5.62-8.8-.51-7.56,8.37S382.76,181.54,382.76,181.54Z" style="fill:#FFC727"></path><path d="M377.48,158.44a8.79,8.79,0,0,0,2.2-1.24,8.57,8.57,0,0,0,1.8-1.76,9.87,9.87,0,0,0-4,3ZM392,173.35a8.87,8.87,0,0,0,1.24,2.19,8.62,8.62,0,0,0,1.77,1.8,9.89,9.89,0,0,0-3-4Zm-2.47-10.92a9.22,9.22,0,0,0,2.42.68,8.93,8.93,0,0,0,2.53,0,9.83,9.83,0,0,0-4.95-.7ZM381,175.35a8.55,8.55,0,0,0,.67-2.43,9.17,9.17,0,0,0,0-2.51,9.11,9.11,0,0,0-.68,2.42A8.86,8.86,0,0,0,381,175.35Zm22.93.65a8.57,8.57,0,0,0,.66-2.37L404,173a4.71,4.71,0,0,0-.09.52A8.5,8.5,0,0,0,403.88,176Z" style="fill:#fff"></path><path d="M403.1,173.26c-.87,0-8.55,1.25-10.21,1.56s-8.48,1.48-10.17,1.94a.06.06,0,1,0,0,.12c1.74-.13,8.62-1.3,10.32-1.58s9.27-1.66,10.08-1.93C403.2,173.35,403.16,173.26,403.1,173.26Z" style="fill:#263238"></path><path d="M376.26,158.83c1.25,8.89,6.5,22.7,6.5,22.7l17.53-3.1-22.74-30C375.67,149.5,375.51,153.48,376.26,158.83Z" style="opacity:0.1"></path><path d="M334.44,203.91l57.68,0-2.58-15.4s4.45-6,4.14-12.59c-.33-7.05-13.81-25.55-14.9-26.58-4.36-4.16-11.52-4.48-15-1.54C344.87,163.62,334.44,203.91,334.44,203.91Z" style="fill:#FFC727"></path><path d="M392,173.35a8.87,8.87,0,0,0,1.24,2.19c.16.21.33.41.5.61,0-.07,0-.12,0-.19a7.63,7.63,0,0,0-.13-1A8.13,8.13,0,0,0,392,173.35Z" style="fill:#FFC727"></path><path d="M385.9,203.94h.23a8.73,8.73,0,0,0,.49-2,8.44,8.44,0,0,0,0-2.51,8.8,8.8,0,0,0-.67,2.43A9.59,9.59,0,0,0,385.9,203.94Z" style="fill:#FFC727"></path><path d="M381.62,172.92a9.17,9.17,0,0,0,0-2.51,9.11,9.11,0,0,0-.68,2.42,8.86,8.86,0,0,0,0,2.52A8.55,8.55,0,0,0,381.62,172.92Z" style="fill:#FFC727"></path><path d="M380,186.19a8.73,8.73,0,0,0,2.42.67,8.92,8.92,0,0,0,2.53,0,9.06,9.06,0,0,0-2.44-.67A8.79,8.79,0,0,0,380,186.19Z" style="fill:#FFC727"></path><path d="M377.48,158.44a8.79,8.79,0,0,0,2.2-1.24,8.57,8.57,0,0,0,1.8-1.76,9.87,9.87,0,0,0-4,3Z" style="fill:#FFC727"></path><path d="M372.08,146.09a1.74,1.74,0,0,0,.22.18.69.69,0,0,0-.07-.15Z" style="fill:#FFC727"></path><path d="M370.32,193.91a8.46,8.46,0,0,0,1.24,2.2,8.57,8.57,0,0,0,1.76,1.8,8.67,8.67,0,0,0-1.24-2.18A9.18,9.18,0,0,0,370.32,193.91Z" style="fill:#FFC727"></path><path d="M366.68,178.42a8.76,8.76,0,0,0,2.19-1.25,8.86,8.86,0,0,0,1.81-1.76,9.6,9.6,0,0,0-4,3Z" style="fill:#FFC727"></path><path d="M365.63,162.86a8.75,8.75,0,0,0,2.42.68,8.92,8.92,0,0,0,2.53,0,9.69,9.69,0,0,0-4.95-.71Z" style="fill:#FFC727"></path><path d="M359.74,151.7a8.54,8.54,0,0,0,2.32.64,8.85,8.85,0,0,0,2.52,0,9.11,9.11,0,0,0-2.42-.68,9.39,9.39,0,0,0-2.37,0A.12.12,0,0,0,359.74,151.7Z" style="fill:#FFC727"></path><path d="M356,185.35a9.37,9.37,0,0,0,2.43.67,9.24,9.24,0,0,0,2.52,0,8.75,8.75,0,0,0-2.42-.68A8.24,8.24,0,0,0,356,185.35Z" style="fill:#FFC727"></path><path d="M354.37,169.84a8.79,8.79,0,0,0,1.24,2.2,9.07,9.07,0,0,0,1.76,1.8,8.46,8.46,0,0,0-1.24-2.2A8.82,8.82,0,0,0,354.37,169.84Z" style="fill:#FFC727"></path><path d="M354.06,199.61a9.23,9.23,0,0,0,0,2.52,8.75,8.75,0,0,0,.68-2.42,8.85,8.85,0,0,0,0-2.52A9.11,9.11,0,0,0,354.06,199.61Z" style="fill:#FFC727"></path><path d="M341.33,189.78a8.56,8.56,0,0,0,2.19-1.24,8.37,8.37,0,0,0,1.81-1.76,9.69,9.69,0,0,0-4,3Z" style="fill:#FFC727"></path><path d="M338,201.78a9.29,9.29,0,0,0,2.43.68,8.86,8.86,0,0,0,2.52,0,9.83,9.83,0,0,0-5-.7Z" style="fill:#FFC727"></path><path d="M369.07,185.29a47.84,47.84,0,0,1,8.25.81c1.36.27,2.7.61,4,1,.67.19,1.34.35,2,.51a7.73,7.73,0,0,0,2.13.27c.06,0,.07.11,0,.11a12.4,12.4,0,0,1-2,.14,12.83,12.83,0,0,1-1.95-.24c-1.38-.26-2.75-.6-4.13-.88-2.78-.56-5.55-1.12-8.35-1.45C368.93,185.54,368.93,185.28,369.07,185.29Z" style="fill:#263238"></path><path d="M362.58,188.71a50.93,50.93,0,0,1,6.74-1c1.13-.09,2.26-.1,3.4-.08l1.63.07c.6,0,1.2.16,1.8.18.06,0,.07.12,0,.12-.56,0-1.12.1-1.69.14l-1.69.1-3.39.21c-2.27.12-4.53.26-6.78.47C362.47,188.94,362.46,188.74,362.58,188.71Z" style="fill:#263238"></path><path d="M354,202.13a8.75,8.75,0,0,0,.68-2.42,8.85,8.85,0,0,0,0-2.52,9.11,9.11,0,0,0-.68,2.42A9.23,9.23,0,0,0,354,202.13Zm31.87,1.81h.23a8.73,8.73,0,0,0,.49-2,8.44,8.44,0,0,0,0-2.51,8.8,8.8,0,0,0-.67,2.43A9.59,9.59,0,0,0,385.9,203.94ZM381,175.35a8.55,8.55,0,0,0,.67-2.43,9.17,9.17,0,0,0,0-2.51,9.11,9.11,0,0,0-.68,2.42A8.86,8.86,0,0,0,381,175.35Zm-15.32-12.49a8.75,8.75,0,0,0,2.42.68,8.92,8.92,0,0,0,2.53,0,9.69,9.69,0,0,0-4.95-.71ZM380,186.19a8.73,8.73,0,0,0,2.42.67,8.92,8.92,0,0,0,2.53,0,9.06,9.06,0,0,0-2.44-.67A8.79,8.79,0,0,0,380,186.19Zm-42,15.59a9.29,9.29,0,0,0,2.43.68,8.86,8.86,0,0,0,2.52,0,9.83,9.83,0,0,0-5-.7Zm18-16.43a9.37,9.37,0,0,0,2.43.67,9.24,9.24,0,0,0,2.52,0,8.75,8.75,0,0,0-2.42-.68A8.24,8.24,0,0,0,356,185.35Zm3.72-33.65a8.54,8.54,0,0,0,2.32.64,8.85,8.85,0,0,0,2.52,0,9.11,9.11,0,0,0-2.42-.68,9.39,9.39,0,0,0-2.37,0A.12.12,0,0,0,359.74,151.7Zm12.34-5.61a1.74,1.74,0,0,0,.22.18.69.69,0,0,0-.07-.15ZM392,173.35a8.87,8.87,0,0,0,1.24,2.19c.16.21.33.41.5.61,0-.07,0-.12,0-.19a7.63,7.63,0,0,0-.13-1A8.13,8.13,0,0,0,392,173.35Zm-37.59-3.51a8.79,8.79,0,0,0,1.24,2.2,9.07,9.07,0,0,0,1.76,1.8,8.46,8.46,0,0,0-1.24-2.2A8.82,8.82,0,0,0,354.37,169.84Zm15.95,24.07a8.46,8.46,0,0,0,1.24,2.2,8.57,8.57,0,0,0,1.76,1.8,8.67,8.67,0,0,0-1.24-2.18A9.18,9.18,0,0,0,370.32,193.91Zm7.16-35.47a8.79,8.79,0,0,0,2.2-1.24,8.57,8.57,0,0,0,1.8-1.76,9.87,9.87,0,0,0-4,3Zm-10.8,20a8.76,8.76,0,0,0,2.19-1.25,8.86,8.86,0,0,0,1.81-1.76,9.6,9.6,0,0,0-4,3Zm-25.35,11.36a8.56,8.56,0,0,0,2.19-1.24,8.37,8.37,0,0,0,1.81-1.76,9.69,9.69,0,0,0-4,3Z" style="fill:#fff"></path><path d="M358.59,151.05c-7.12,7.51-37.2,42.4-34.12,51.51,2.86,8.48,15.52,6.46,20.41,1.35,7.1-7.4,17.19-36.56,19.58-44.93C366.74,151,365.58,143.66,358.59,151.05Z" style="fill:#f7a9a0"></path><path d="M358.54,179.83l-24.1-6.5s18.64-20.16,25.79-24.54c8-4.93,8.81.27,6.79,9S358.54,179.83,358.54,179.83Z" style="fill:#FFC727"></path><path d="M334.44,173.33l24.1,6.51s6.45-13.3,8.48-22,1.27-13.94-6.79-9c-.4.25-.85.55-1.33.9-.19.13-.38.28-.58.43h0a113.8,113.8,0,0,0-9.49,8.45l-.19.18c-2.71,2.64-5.42,5.38-7.74,7.77l-1,1C336.69,170.89,334.44,173.33,334.44,173.33Z" style="fill:#FFC727"></path><path d="M334.44,173.33l24.1,6.51s6.45-13.3,8.48-22,1.27-13.94-6.79-9c-.4.25-.85.55-1.33.9-.19.13-.38.28-.58.43h0a113.8,113.8,0,0,0-9.49,8.45l-.19.18c-2.71,2.64-5.42,5.38-7.74,7.77l-1,1C336.69,170.89,334.44,173.33,334.44,173.33Z" style="fill:#FFC727"></path><path d="M337.36,173.33a8.33,8.33,0,0,0,2.2-1.24,8.57,8.57,0,0,0,1.8-1.76,8.87,8.87,0,0,0-2.19,1.24A9.13,9.13,0,0,0,337.36,173.33Zm17-3.49a8.79,8.79,0,0,0,1.24,2.2,9.07,9.07,0,0,0,1.76,1.8,8.46,8.46,0,0,0-1.24-2.2A8.82,8.82,0,0,0,354.37,169.84Zm5.27-18.18a8.75,8.75,0,0,0,2.42.68,8.85,8.85,0,0,0,2.52,0,9.11,9.11,0,0,0-2.42-.68A9.23,9.23,0,0,0,359.64,151.66Zm-8.79,12a8.75,8.75,0,0,0,.68-2.42,8.85,8.85,0,0,0,0-2.52,8.92,8.92,0,0,0-.68,2.43A8.79,8.79,0,0,0,350.85,163.69Z" style="fill:#fff"></path><path d="M339,170c.87.1,8.42,2,10,2.46s8.31,2.23,10,2.84a.06.06,0,0,1,0,.12c-1.72-.29-8.46-2.06-10.13-2.49s-9.09-2.48-9.87-2.82C338.88,170,338.93,170,339,170Z" style="fill:#263238"></path><path d="M356.16,179.19c.81.16,1.61.35,2.41.52l-.15.07,3.41-8,3.4-8a103.32,103.32,0,0,1-6.57,16.06l-.05.1c-.82-.26-1.64-.51-2.45-.8Z" style="fill:#263238"></path><path d="M365.52,165.84a3.94,3.94,0,0,1-1.95,2.52,7.38,7.38,0,0,1,1.95-2.52Z" style="fill:#263238"></path><path d="M367,150c.38,1,6.35,7.27,11.18,6.42,1.57-.28.41-8.93.41-8.93l.07-.66.84-9.21-11.39-5.39-1.63-.69s-.07,2.53-.12,5.69v.45c0,.18,0,.35,0,.51,0,.47,0,1,0,1.44s0,.72,0,1.1,0,.76,0,1.14A59.9,59.9,0,0,0,367,150Z" style="fill:#f7a9a0"></path><path d="M366.46,131.57s-.06,2.55-.12,5.7v.45a4.42,4.42,0,0,0,0,.51c0,.47,0,1,0,1.43s0,.72,0,1.11,0,.76,0,1.15c0,1.33.1,2.68.19,3.88,3.55.24,8.77-.16,12.59-4l.38-4.16-11.38-5.38Z" style="fill:#263238"></path><path d="M359.94,121.09c-6,15.06,2.31,20.38,5.56,21.68,2.95,1.18,13.14,4.82,20.71-9.54s2.46-21.93-4.14-25S366,106,359.94,121.09Z" style="fill:#f7a9a0"></path><path d="M375.83,109.65a7.25,7.25,0,0,0-1.19,4c.45,4,4.9,4.53,5.84,6.37s-.49,4.21.27,5.9c1.05,2.33,2.61,1.46,2.47,2.74s-.66,5.33.69,6.33,17-21.68-3-27.75c0,0-2.36-2.22-7.27-1.38-7,1.18-10.68,8.6-10.68,8.6a5.16,5.16,0,0,0,2.16-.2c1.25-.51,1.93-1,2.82-1.28,1.4-.48,1.86.36,3.29-.07C373.37,112.28,375.83,109.65,375.83,109.65Z" style="fill:#263238"></path><path d="M376.3,108.87a14.4,14.4,0,0,0-1.62,2.82,5.89,5.89,0,0,0-.6,3.08,4.3,4.3,0,0,0,1.66,2.55c.82.67,1.82,1.13,2.69,1.89a3.2,3.2,0,0,1,1,1.45,4.36,4.36,0,0,1,0,1.72,5.82,5.82,0,0,0,.15,3.11,3.62,3.62,0,0,0,2.26,2c1,.35,2.19.45,3,1.22-.88-.7-2-.7-3.08-1a3.94,3.94,0,0,1-2.55-2.1,5.78,5.78,0,0,1-.25-3.33,4.1,4.1,0,0,0-.06-1.53,2.8,2.8,0,0,0-.85-1.21c-.78-.69-1.78-1.18-2.65-1.9a5.71,5.71,0,0,1-1.14-1.26,3.4,3.4,0,0,1-.61-1.61,6.08,6.08,0,0,1,.76-3.23A14.49,14.49,0,0,1,376.3,108.87Z" style="fill:#263238"></path><path d="M375.62,109.64a11.53,11.53,0,0,1-1.91,2.39,5.33,5.33,0,0,1-2.73,1.49,8.23,8.23,0,0,1-1.55.06,2.55,2.55,0,0,0-1.32.34,7.38,7.38,0,0,1-1.26.87,3.44,3.44,0,0,1-1.5.3,3.83,3.83,0,0,0,1.38-.52,7.74,7.74,0,0,0,1.14-1,2.64,2.64,0,0,1,1.54-.52,7.86,7.86,0,0,0,1.48-.07,5.75,5.75,0,0,0,2.55-1.3A22.42,22.42,0,0,0,375.62,109.64Z" style="fill:#263238"></path><path d="M382.73,132.1s4.86-3.81,6.69-1.94-2.84,8.13-5.72,8.31a2.75,2.75,0,0,1-3.09-2.48Z" style="fill:#f7a9a0"></path><path d="M388,131.92a0,0,0,0,1,0,.07c-2,.19-3.5,1.58-4.69,3.12a1.52,1.52,0,0,1,2.29.26s0,.11-.08.08a1.68,1.68,0,0,0-1.95,0,8.42,8.42,0,0,0-1.29,1.17c-.13.14-.4,0-.28-.2l0,0C382.71,134.09,385.49,131.4,388,131.92Z" style="fill:#263238"></path><path d="M364.8,118.75a10.6,10.6,0,0,0,1.13.16,1.83,1.83,0,0,0,1.18,0,.58.58,0,0,0,.24-.68,1.44,1.44,0,0,0-1.23-.81,2.13,2.13,0,0,0-1.52.25A.63.63,0,0,0,364.8,118.75Z" style="fill:#263238"></path><path d="M375,123.18a9.6,9.6,0,0,1-1-.6c-.37-.24-.69-.39-.87-.81a.58.58,0,0,1,.25-.67,1.46,1.46,0,0,1,1.46.17,2.15,2.15,0,0,1,1,1.18C376,123,375.42,123.41,375,123.18Z" style="fill:#263238"></path><path d="M371.28,126.06s.06.08,0,.12c-.44,1-.77,2.29,0,3,0,0,0,.07,0,.05C370.23,128.63,370.69,127,371.28,126.06Z" style="fill:#263238"></path><path d="M372.64,125.33c1.73.53.54,4-1.06,3.47S371.19,124.88,372.64,125.33Z" style="fill:#263238"></path><path d="M373.25,125.74c.23.3.41.75.76.91a1.33,1.33,0,0,0,1.23-.32s.06,0,.05.06c-.22.66-.71,1.25-1.45,1.1s-.93-.87-.86-1.59C373,125.77,373.16,125.62,373.25,125.74Z" style="fill:#263238"></path><path d="M365.38,123.24s-.1,0-.11.07c-.33,1.08-.88,2.25-2,2.28,0,0,0,.06,0,.06C364.52,125.89,365.25,124.32,365.38,123.24Z" style="fill:#263238"></path><path d="M364.81,121.81c-1.67-.71-3,2.68-1.42,3.34S366.21,122.41,364.81,121.81Z" style="fill:#263238"></path><path d="M364,121.76c-.34.08-.73.3-1.06.2s-.51-.59-.61-1c0,0-.05,0-.07,0-.27.64-.31,1.4.27,1.76s1.15-.07,1.55-.65C364.17,122,364.15,121.73,364,121.76Z" style="fill:#263238"></path><path d="M368,134.38c-.34.17-.7.45-1.1.36a3.14,3.14,0,0,1-1.08-.61s-.07,0-.06,0a1.53,1.53,0,0,0,1.19,1,1.19,1.19,0,0,0,1.13-.7C368.15,134.4,368.07,134.35,368,134.38Z" style="fill:#263238"></path><path d="M365,129s-.79,1.5-1.06,2.25c0,.07.14.17.39.27,0,0,0,0,0,0a3.74,3.74,0,0,0,3.91-.08c.08,0,0-.16-.07-.14a5.67,5.67,0,0,1-3.57-.24c0-.23,1.44-2.52,1.32-2.58a6.8,6.8,0,0,0-1.83-.22c1.55-3.18,3.6-6.07,5.1-9.25.05-.12-.11-.22-.18-.12a57,57,0,0,0-5.91,9.73C362.91,129,364.64,129,365,129Z" style="fill:#263238"></path><path d="M417.23,172.87c.39-6.94.31-16.72-1.72-19.17s-10-11.27-12.45-12.71-13.44-8.25-15.86-7.41c-1.94.67-.77,5.65,4.44,8.94a83.23,83.23,0,0,1,8.07,6.08c1.32.9,3.89,6.25,2.54,8.14-.8,1.11-4.63,1.85-6.64.42s-1.71-5.9-3.83-8.45-6.61-3.17-7.1-2,.87,2,2.35,6.53c1,2.9-.18,9.22,2.26,14.38a79.13,79.13,0,0,1,3,9.2Z" style="fill:#f7a9a0"></path><path d="M389.79,146.39a4.51,4.51,0,0,1-2-1.43,1.85,1.85,0,0,1-.32-1,1.82,1.82,0,0,1,.09-.56.91.91,0,0,1,.32-.5c.05,0,0-.09,0-.05a2.73,2.73,0,0,1-.25.23,1.3,1.3,0,0,0-.18.23,1.42,1.42,0,0,0-.2.53,1.89,1.89,0,0,0,.22,1.21,3.09,3.09,0,0,0,2.36,1.41A0,0,0,0,0,389.79,146.39Z" style="fill:#263238"></path><path d="M415.51,153.7c-1.48-3.78-5.79-10.93-10.82-14.08-3.4-2.13-17.25,1.56-17.36,4s2.06,2.92,5.33,3.17c1.19.09,7.79-.92,8.59.58,1.15,2.15,1.82,8.88,1.82,8.88Z" style="fill:#f7a9a0"></path><path d="M387.83,142.79c2.07-2.28,5.77-3,9.4-3.42.06,0,.07.09,0,.09-.93.11-7,1.59-9.39,3.38C387.83,142.86,387.81,142.81,387.83,142.79Z" style="fill:#263238"></path><path d="M415.51,153.7c-1.48-3.78-5.79-10.93-10.82-14.08-3.4-2.13-14.95,3.8-15.05,6.29s3,3.29,6.63,2.77c1.18-.17,5.41-2.06,6.21-.57,1.14,2.16,3.93,7.49,3.93,7.49Z" style="fill:#f7a9a0"></path><path d="M404.84,152.33c-.24-.6-.32-.81-.57-1.4s-.51-1.19-.81-1.76a4.64,4.64,0,0,0-.9-1.41,2.44,2.44,0,0,0-1.46-.6,8.64,8.64,0,0,0-3.55.81c-1.26.42-3.8,1-5.55.48a3.73,3.73,0,0,1-1.34-.66A2.24,2.24,0,0,1,390,147c-.52-1.47.74-2.79,1.94-3.66a23.37,23.37,0,0,1,7.64-3.28c.65-.18,1.31-.34,2-.5a5.36,5.36,0,0,1,2.29-.19c1.25.23,3,1.89,3.6,2.4,0,0,.09,0,.05-.07-.67-.63-2.26-2.55-4.29-2.84a6.33,6.33,0,0,0-2.23.3c-.76.16-1.51.35-2.26.56a29.13,29.13,0,0,0-4.26,1.51,12.18,12.18,0,0,0-3.71,2.35,3.57,3.57,0,0,0-.92,3.54,3.12,3.12,0,0,0,2,1.64,6.19,6.19,0,0,0,1.59.29,25.09,25.09,0,0,0,3.64-.33c1.17-.22,2.29-.76,3.48-.88a2.13,2.13,0,0,1,1.6.42,5.71,5.71,0,0,1,1,1.34,17.84,17.84,0,0,1,1.56,2.8C404.76,152.62,404.94,152.58,404.84,152.33Z" style="fill:#263238"></path><path d="M416.53,157c-.47-1.75-.51-8.62-1.39-10.89s-5.34-10.42-8.11-10.65c-3.49-.28-1.14,6.57.16,9.45s.15,7.14.15,7.14Z" style="fill:#f7a9a0"></path><path d="M405.51,140.17c.48.93.87,1.93,1.26,2.9a20.59,20.59,0,0,1,1,2.81,8.8,8.8,0,0,1,.12,2.94,13.9,13.9,0,0,1-.22,1.44c-.09.52-.24,1-.33,1.56,0,.06-.1.05-.09,0a23.28,23.28,0,0,0,.18-2.9,12.49,12.49,0,0,0-.3-3c-.45-1.94-1.31-3.77-1.78-5.71A.07.07,0,0,1,405.51,140.17Z" style="fill:#263238"></path><path d="M407.15,152.71a9.84,9.84,0,0,1-1.81,4.63,17.27,17.27,0,0,1-1.52,2,18.41,18.41,0,0,1-1.81,1.74,19.66,19.66,0,0,0-3.27,3.5,20.26,20.26,0,0,0-2.2,4.33,12.9,12.9,0,0,1,1.55-4.74,15.17,15.17,0,0,1,3.24-3.84,23.8,23.8,0,0,0,3.34-3.47A14.43,14.43,0,0,0,407.15,152.71Z" style="fill:#263238"></path><path d="M403.86,210.51c-6.46-2.26-8.51-14.27-12.07-35.38-.62-3.7,21.09-21.21,22.8-17.58,2.16,4.58,5.62,28.3,5.22,34.49C419,204.24,411.41,213.16,403.86,210.51Z" style="fill:#f7a9a0"></path><path d="M391.79,175.13c1,5.06,2.19,12.14,3.34,17.08.6,2.84,1.31,5.65,2.15,8.41s1.7,5.62,3.71,7.73c-5.94-5.42-8.42-25-9.2-33.22Z" style="fill:#263238"></path><path d="M382.28,152.16l-9.21,28.54c-.37.84,0,1.56.85,1.61l15,1a2.42,2.42,0,0,0,2.18-1.41l9.21-28.54a1,1,0,0,0-.85-1.61l-15-1A2.46,2.46,0,0,0,382.28,152.16Z" style="fill:#37474f"></path><path d="M384.06,152.26l-9.21,28.55c-.37.83,0,1.55.85,1.6l15,1a2.43,2.43,0,0,0,2.18-1.4l9.21-28.55a1,1,0,0,0-.85-1.61l-15-1A2.45,2.45,0,0,0,384.06,152.26Z" style="fill:#455a64"></path><path d="M388.08,153.86a1.28,1.28,0,1,1-1.16-1.39A1.29,1.29,0,0,1,388.08,153.86Z" style="fill:#263238"></path><path d="M327.57,208.56c4.34,2.28,14.22,1.67,33.4-11.37,3-2-6.27-27.88-9.51-25.76-4.08,2.67-19.34,13.92-20.35,14.88C322.57,194.44,323,206.14,327.57,208.56Z" style="fill:#f7a9a0"></path><path d="M343.91,178.9s6-8.45,10.56-11.9a36.57,36.57,0,0,1,16.26-6.58c6.33-.93,22.3,1.19,22.49,5.9.17,4.25-16,1.26-16,1.26s17,.33,16.29,5.49-19.35.62-19.35.62,17.49.73,15.89,5.93c-1.21,3.94-18.3.77-18.3.77s15,.73,14,4.83c-1.19,4.53-17.15,2.59-17.15,2.59-4.47,10-10.89,12.78-15.55,14.32C351.84,202.51,343.91,178.9,343.91,178.9Z" style="fill:#f7a9a0"></path><path d="M371.3,167.09c2,0,4-.08,6,.06s4,.36,6,.69a34.81,34.81,0,0,1,7.57,2c-4.45-1.38-11.6-2-13.59-2.15s-4-.39-6-.54C371.24,167.16,371.25,167.09,371.3,167.09Z" style="fill:#263238"></path><path d="M370.65,174.29c2.56.07,5.1,0,7.65.22s4.94.57,7.47.93c.19,0,.11.12-.08.1-2.54-.25-4.9-.29-7.44-.51s-5.07-.55-7.61-.68C370.6,174.35,370.61,174.29,370.65,174.29Z" style="fill:#263238"></path><path d="M369,180.37a57.42,57.42,0,0,1,11.68,1.24c.19,0,.07.14-.13.12-3.87-.48-6.91-.89-11.55-1.22C368.91,180.5,368.89,180.38,369,180.37Z" style="fill:#263238"></path><path d="M347.61,174.1c-4.73,3.79-10,7.35-14.88,10.92a105.55,105.55,0,0,1,14.88-10.92Z" style="fill:#263238"></path></g><g id="freepik--character-1--inject-2"><circle cx="132.92" cy="141.3" r="84.26" transform="translate(-60.98 135.37) rotate(-45)" style="fill:#dbdbdb"></circle><path d="M137.12,221.65A84.53,84.53,0,0,1,81.8,201l.66-.75A83.55,83.55,0,1,0,89.12,68.7l-.57-.82a84.56,84.56,0,1,1,48.57,153.77Z" style="fill:#263238"></path><path d="M55.87,160.57a84.74,84.74,0,0,1,15.83-77l.78.64a83.72,83.72,0,0,0-15.65,76.13Z" style="fill:#263238"></path><path d="M72.07,191.11A84.88,84.88,0,0,1,60.1,172l.91-.41a83.79,83.79,0,0,0,11.83,18.85Z" style="fill:#263238"></path><path d="M146.8,131.06c10.25,31.44,18.18,63.41,34.48,70.74,15.5,7,60.94-26.87,69.76-39.17,3-4.24-27.25-30-32.15-27.36-9.24,5-27.34,22.67-29.8,21.73s-15-21.47-31.75-41C147.17,104.18,139.7,109.28,146.8,131.06Z" style="fill:#ad6359"></path><path d="M241,169.47c4.78-.66,22.77-8.53,28.6-11,10-4.24,18.58-15,16.42-19.38-2-4-11,6.55-11,6.55s14.85-11.15,12.21-17.23c-2-4.52-8.58.58-8.58.58s6.7-6.89,3.15-10.32c-2.94-2.84-17,8.46-17,8.46s13-12.4,7-15.77c-4-2.22-9.77,6.88-18,10.23-.72.3-7.88,2.62-15,4.91-7.4,2.37-25.76,25.79-25.76,25.79Z" style="fill:#ad6359"></path><path d="M264.5,127.09a46.77,46.77,0,0,1-11.6,6c-.09,0,0,.31.08.29,5.9-1.37,7.56-2.18,11.75-6.07C265,127.1,264.73,126.92,264.5,127.09Z" style="fill:#263238"></path><path d="M278.28,129c-7.86,6.94-12.49,9.14-22.35,12.42-.14,0-.08.28.07.25,9.94-2.41,15.63-4.26,22.57-12.22C278.88,129.07,278.64,128.66,278.28,129Z" style="fill:#263238"></path><path d="M282.11,138.69c-7.34,6.16-11.62,7.92-20.72,10.3-.13,0-.08.27.06.25,9.15-1.51,14.4-2.83,20.92-10.08C282.66,138.84,282.45,138.41,282.11,138.69Z" style="fill:#263238"></path><path d="M213,152.27S215.5,132,223.5,124c4-4,23.63-16.32,26.56-12.44,3.79,5-5.59,14.37-10.78,18.35,0,0,8.77,11.6,3.49,19.77S213,152.27,213,152.27Z" style="fill:#ad6359"></path><path d="M250.65,113.28c.15,7.07-7,11.85-11.75,16.09a.58.58,0,0,0,.08.95c3.35,5.11,6.59,13.29,4.18,19.27a.15.15,0,0,0,.27.14c3.44-6.07.92-14.37-3.11-19.73,4.94-4.27,11.9-9.38,10.4-16.72C250.71,113.24,250.65,113.24,250.65,113.28Z" style="fill:#263238"></path><path d="M210.67,139.08l26.08,39.14s-40,32-55.11,25.35-31.84-52-36.8-80.7c-3.43-19.89,6.5-15.1,15.9-4s28.34,36.32,29.65,36.2S210.67,139.08,210.67,139.08Z" style="fill:#FFC727"></path><g style="opacity:0.4"><path d="M210.67,139.08l26.08,39.14s-40,32-55.11,25.35-31.84-52-36.8-80.7c-3.43-19.89,6.5-15.1,15.9-4s28.34,36.32,29.65,36.2S210.67,139.08,210.67,139.08Z" style="fill:#000102"></path></g><path d="M225.48,182.08c-3.82-5.44-18.63-28.25-21.5-33.4-.2-.35,0-.56.24-.22,11.83,16,18,27.94,21.47,33.46C225.77,182.06,225.57,182.21,225.48,182.08Z" style="fill:#263238"></path><path d="M191.66,204.51c-3.54,1.07-7.52,1.36-10.19.38-5.37-2-9.73-10.57-9.73-10.57-11.79-16-23-49.12-26.9-71.45-1.91-11.1.33-14.51,4.33-13.44h0a9.24,9.24,0,0,1,1.53,1C162.08,133.79,182.05,181.88,191.66,204.51Z" style="fill:#000102;opacity:0.1"></path><path d="M168.53,217.68q-3.42,1.6-7,2.89a84.12,84.12,0,0,1-26.33,5c-.76,0-1.52,0-2.29,0a84,84,0,0,1-60.59-25.71c10-30.94,28.12-73.25,53.42-92.42a14,14,0,0,1,2.87-1.67c7.32-3.23,17.11-.67,21.8,2.55a8.05,8.05,0,0,1,1.66,1.88c3.23,4.59,8.4,16,9.89,26.25C163.37,146.15,167.58,196.33,168.53,217.68Z" style="fill:#ebebeb"></path><path d="M135.21,225.53c-.76,0-1.52,0-2.29,0a84,84,0,0,1-60.59-25.71q-.49-.51-1-1c5.63-15.63,19.52-51.78,33.6-70,16.55-21.4,23.54-23.73,23.54-23.73s0,.22.11.64c1,6.36,9.26,57.75,9.53,60C138.38,167.62,136.14,208.78,135.21,225.53Z" style="fill:#FFC727"></path><path d="M135.21,225.53c-.76,0-1.52,0-2.29,0a84,84,0,0,1-60.59-25.71q-.49-.51-1-1c5.63-15.63,19.52-51.78,33.6-70,16.55-21.4,23.54-23.73,23.54-23.73s0,.22.11.64c1,6.36,9.26,57.75,9.53,60C138.38,167.62,136.14,208.78,135.21,225.53Z" style="fill:#FFC727"></path><path d="M135.21,225.53c-.76,0-1.52,0-2.29,0a84,84,0,0,1-60.59-25.71q-.49-.51-1-1c5.63-15.63,19.52-51.78,33.6-70,16.55-21.4,23.54-23.73,23.54-23.73s0,.22.11.64c1,6.36,9.26,57.75,9.53,60C138.38,167.62,136.14,208.78,135.21,225.53Z" style="fill:#000102;opacity:0.4"></path><path d="M170.6,216.68c-.68.35-1.37.68-2.07,1q-3.42,1.6-7,2.89c-1.08-17.61-3.31-54.06-3.4-56.51-.11-3-5.23-46.74-6.06-53.87-.08-.64-.12-1-.12-1s7.8,13.27,10,24.54c1.42,7.12,4.61,45.07,5.11,48.62C167.46,184.77,169.4,204.35,170.6,216.68Z" style="fill:#FFC727"></path><path d="M170.6,216.68c-.68.35-1.37.68-2.07,1q-3.42,1.6-7,2.89c-1.08-17.61-3.31-54.06-3.4-56.51-.11-3-5.23-46.74-6.06-53.87-.08-.64-.12-1-.12-1s7.8,13.27,10,24.54c1.42,7.12,4.61,45.07,5.11,48.62C167.46,184.77,169.4,204.35,170.6,216.68Z" style="fill:#000102;opacity:0.4"></path><path d="M115.14,113.22c-30.85,29-60.29,82.7-53.81,95.8,7.22,14.6,48.65-25.39,47.45-27.55-1-1.83,4.54-22.12,13.25-50.39C130.89,102.34,122.77,106.05,115.14,113.22Z" style="fill:#FFC727"></path><g style="opacity:0.4"><path d="M115.14,113.22c-30.85,29-60.29,82.7-53.81,95.8,7.22,14.6,48.65-25.39,47.45-27.55-1-1.83,4.54-22.12,13.25-50.39C130.89,102.34,122.77,106.05,115.14,113.22Z" style="fill:#000102"></path></g><path d="M61.22,208.19c5.87,9.1,22.68,11.43,64.47,21.27,5.79,1.36,26.37-36.87,20.27-38.64-7.68-2.23-38-9.22-40.27-9.45C86.46,179.41,57.24,202,61.22,208.19Z" style="fill:#ad6359"></path><path d="M137.61,188.58s17.74,3.37,26.51,8c11.74,6.23,19.31,16.45,22.23,20.92,6.08,9.34,14.34,36.12,7,39.84-6.61,3.37-13.66-24.43-13.66-24.43s11.87,27.16,3.17,29.76-15.06-30.15-15.06-30.15S179.41,260.73,170,262c-7.1.95-14.53-28.38-14.53-28.38s9.78,24.29,2.52,25.58c-8,1.43-16.58-25.21-16.58-25.21-19,.17-28.13-7.52-34-13.76C106.05,218.71,137.61,188.58,137.61,188.58Z" style="fill:#ad6359"></path><path d="M176.22,223.29c1.51,3.14,3.06,6.3,4.29,9.57s2.34,6.57,3.25,9.93a60.15,60.15,0,0,1,2.33,13.42c-1.05-8-5.26-19.78-6.49-23s-2.28-6.57-3.5-9.83A.06.06,0,1,1,176.22,223.29Z" style="fill:#263238"></path><path d="M164.36,227.5c1.76,4.09,3.65,8.09,5.22,12.26s2.69,8.23,4,12.47c.1.33-.11.28-.22,0-1.45-4.19-3.11-8-4.6-12.13s-2.83-8.42-4.47-12.52C164.23,227.47,164.33,227.44,164.36,227.5Z" style="fill:#263238"></path><path d="M153.53,229.28c3,6.12,4.87,12.78,6.55,19.36.08.33-.18.23-.28-.1-2.06-6.48-3.63-11.57-6.48-19.15C153.27,229.27,153.47,229.15,153.53,229.28Z" style="fill:#263238"></path><path d="M145.55,187.19S113.48,230.7,113,230.67s-48.24-12-52-22.51,27.7-28.31,44.67-26.86S145.55,187.19,145.55,187.19Z" style="fill:#FFC727"></path><path d="M145.55,187.19S113.48,230.7,113,230.67s-48.24-12-52-22.51,27.7-28.31,44.67-26.86S145.55,187.19,145.55,187.19Z" style="fill:#000102;opacity:0.4"></path><path d="M130.24,186.72c-1.33,1.45-11.29,15.76-13.39,18.91s-10.79,16-12.68,19.41a.14.14,0,0,0,.22.16c2.5-3,11.31-15.92,13.51-19.09s11.74-17.55,12.57-19.27C130.54,186.7,130.33,186.63,130.24,186.72Z" style="fill:#263238"></path><path d="M86.82,185.08c3.38-1.6,12.89-5.27,22-3.61.1,0,.09.14,0,.14-7.52-.45-18.45,2.27-21.87,3.59C86.8,185.23,86.74,185.12,86.82,185.08Z" style="fill:#263238"></path><path d="M143.57,189.87l1.91-2.74.05.15c-3.11-.62-6.24-1.16-9.36-1.73-9.36-1.64-18.76-3.15-28.23-4.08l-.55-.05.11-.54a264,264,0,0,1,11.31-39.13q-3.15,9.67-5.67,19.54c-1.68,6.57-3.31,13.16-4.67,19.79l-.43-.59a288,288,0,0,1,37.54,6.6l.14,0-.09.11-2.06,2.63Z" style="fill:#263238"></path><path d="M114.11,156.37a62,62,0,0,1,4.9-8.81,41.48,41.48,0,0,1-4.9,8.81Z" style="fill:#263238"></path><path d="M66.62,213.68a303.76,303.76,0,0,0,34.6,13.2c3.93,1.25,7.89,2.3,11.85,3.45l-.35.12c1-1.07,1.93-2.13,3-3.14-.75,1.23-1.58,2.41-2.42,3.57l-.11.16-.24,0c-4.06-.76-8-2-12-3.17a204.07,204.07,0,0,1-34.31-14.15Z" style="fill:#263238"></path><path d="M146.4,124.08c-5.83.4-14.06-9.77-16.72-17.34-.18-.52,4.95-19.25,5.58-23.06.13-.78,23,9.77,23,9.77s-3.68,7.61-4.74,14.27C153.45,108.28,152,123.69,146.4,124.08Z" style="fill:#ad6359"></path><path d="M158.28,93.45h0c0,.11-.26.56-.58,1.28-.54,1.23-1.39,3.23-2.18,5.54a43.25,43.25,0,0,0-2,7.44,5.24,5.24,0,0,0-.08.53v.08c0,.32-.08.74-.15,1.23a14.59,14.59,0,0,1-2.35-.25c-13-2.45-14.74-19.18-14.94-25.52a2.85,2.85,0,0,1,.41.14c.61.2,1.42.51,2.38.9l.74.3c1.53.64,3.36,1.43,5.26,2.25.62.27,1.25.54,1.88.83l4,1.78c.54.26,1.08.5,1.59.73s1.12.51,1.63.73l.75.34L155,92l1.9.87c.38.17.68.32.91.41s.32.15.38.19.05,0,.06,0Z" style="fill:#263238"></path><path d="M160.44,78.41c-.52,5.52,3,10.36,7.82,10.81s9.19-3.64,9.71-9.16-3-10.36-7.83-10.82S161,72.89,160.44,78.41Z" style="fill:#455a64"></path><path d="M157.56,78.49c-.57,6.14,3.32,11.52,8.71,12s10.22-4.06,10.8-10.2-3.32-11.52-8.71-12S158.14,72.35,157.56,78.49Z" style="fill:#c7c7c7"></path><path d="M137.88,56.48c-4.27,7.92-4.69,33.17.23,39.81,7.13,9.61,21.23,13.22,30,4.11,8.52-8.84,8.49-41.76,2.77-48C162.48,43.12,144.18,44.78,137.88,56.48Z" style="fill:#ad6359"></path><path d="M158.7,75.62c0-.06-.14.08-.14.15,0,1.7-.34,3.65-1.9,4.14,0,0,0,.1,0,.1C158.56,79.83,159,77.24,158.7,75.62Z" style="fill:#263238"></path><path d="M157.26,73.78c-2.73-.33-3.19,5.14-.66,5.45S159.54,74.05,157.26,73.78Z" style="fill:#263238"></path><path d="M168.49,76.72c0-.06.13.1.12.17-.2,1.69-.14,3.66,1.35,4.35,0,0,0,.11,0,.09C168.09,80.91,168,78.3,168.49,76.72Z" style="fill:#263238"></path><path d="M170.16,75.08c2.74,0,2.5,5.51,0,5.49S167.86,75.06,170.16,75.08Z" style="fill:#263238"></path><path d="M155.24,72.38a21,21,0,0,0,2.23-.33,3.63,3.63,0,0,0,2.21-.76,1.16,1.16,0,0,0,.09-1.42A2.89,2.89,0,0,0,157,69a4.23,4.23,0,0,0-2.75,1.33A1.24,1.24,0,0,0,155.24,72.38Z" style="fill:#263238"></path><path d="M172.35,73.52a19.91,19.91,0,0,1-2.13-.75,3.64,3.64,0,0,1-2-1.17,1.18,1.18,0,0,1,.19-1.41,2.87,2.87,0,0,1,2.9-.3,4.17,4.17,0,0,1,2.44,1.83A1.23,1.23,0,0,1,172.35,73.52Z" style="fill:#263238"></path><path d="M154.54,91.09c.35.45.68,1,1.29,1.17a4.4,4.4,0,0,0,1.87-.19.06.06,0,0,1,.06.1,2.28,2.28,0,0,1-2.26.64,1.79,1.79,0,0,1-1.13-1.66C154.35,91.05,154.49,91,154.54,91.09Z" style="fill:#263238"></path><path d="M157,86.26a5.84,5.84,0,0,0,3.51,3.06,7.48,7.48,0,0,0,2.06.36h.78a.4.4,0,0,0,.38-.33h0a.56.56,0,0,0,0-.18h0l0-.15c.2-1.3.33-3.29.33-3.29.44.3,2.73,1.7,2.77,1,.39-5.67.82-12,0-17.69a.16.16,0,0,0-.31,0c-.59,5.43-.22,10.93-.72,16.4a10.27,10.27,0,0,0-2.61-1.18c-.19,0-.18,3.86-.32,4.44a.15.15,0,0,1,0,.06c-2.22,0-3.78-.88-5.71-2.62C157,86,156.88,86.12,157,86.26Z" style="fill:#263238"></path><path d="M161.85,88.92a6.86,6.86,0,0,1-3,1.76,3.05,3.05,0,0,1-1.88-.12c-1.3-.53-1.17-1.77-.79-2.8a7.41,7.41,0,0,1,.81-1.54A8.89,8.89,0,0,0,161.85,88.92Z" style="fill:#263238"></path><path d="M158.84,90.68a3.05,3.05,0,0,1-1.88-.12c-1.3-.53-1.17-1.77-.79-2.8A3.19,3.19,0,0,1,158.84,90.68Z" style="fill:#ff9abb"></path><path d="M133.76,78c3.73,1.17,7.21-4.29,8.24-6.61s.49-12.94,2.43-16.4,5.92-5.29,9-4.28,9.09,5.52,11.38,5.38,1.59-4.77,3.18-4.72c3.51.1,5.86,7.88,6.37,11.74,0,0,2.1-15.85-15.78-18.09-16.3-2-21.93,9.1-23.5,14A44.14,44.14,0,0,0,133.76,78Z" style="fill:#263238"></path><path d="M139.35,77.4s-4.12-8.9-8.07-7.57-1.84,13.53,2.1,15.86a4.36,4.36,0,0,0,6.16-1.27Z" style="fill:#ad6359"></path><path d="M132,73.31c-.06,0-.09.08,0,.11,2.75,1.73,3.81,4.75,4.39,7.78-.68-1.25-1.77-2.06-3.43-1.28-.08,0,0,.18.06.17a2.68,2.68,0,0,1,2.73,1.44,12.5,12.5,0,0,1,1,2.6c.09.29.6.23.55-.09,0,0,0-.05,0-.07C137.94,80.21,136,74.42,132,73.31Z" style="fill:#263238"></path><polygon points="153.97 93.73 146.08 92.1 138.77 86.06 139.7 84.93 146.73 90.74 154.26 92.29 153.97 93.73" style="fill:#c7c7c7"></polygon><path d="M153,92.73c.28-2.25,6.35-2.69,5.93.72S152.68,95,153,92.73Z" style="fill:#37474f"></path><path d="M135.49,71.22s-.22-11.85,3.58-18.19c4.22-7.06,19.05-12.5,29.64-4.17,0,0-16.16-4.73-25,4.92-3.72,4.06-4.3,18-4.3,18Z" style="fill:#c7c7c7"></path><path d="M146.74,78.21c-.24,6.16-4.81,11-10.22,10.77s-9.59-5.37-9.35-11.53,4.81-11,10.22-10.78S147,72.05,146.74,78.21Z" style="fill:#c7c7c7"></path><path d="M143.91,77.75c-.22,5.53-4.33,9.87-9.19,9.68s-8.62-4.83-8.41-10.37,4.33-9.87,9.19-9.68S144.12,72.21,143.91,77.75Z" style="fill:#455a64"></path><path d="M153.36,109.75l-7.85,13.44-15.07-20.71-5.89,5.06s13.1,31.28,13.41,30l7.71-11.44,7.22,9.83,2.5-21.61Z" style="fill:#ebebeb"></path><path d="M154.73,125.32c.3-3.58.69-7.18.82-10.77,0-.13-.19-.22-.24-.07-1.22,3.32-2.26,17-2.76,20.26l0,0c-.3-.42-6.76-8.7-6.85-8.6-1.57,1.77-7.22,10.09-7.63,10.86-2.07-5-10.14-23.1-12.75-27.9a.12.12,0,0,0-.23.09c1.71,5.18,12.33,29.57,12.55,29.54a140.68,140.68,0,0,0,8.08-12.1c1.05,1.75,7.44,11,7.54,10.43A112.37,112.37,0,0,0,154.73,125.32Z" style="fill:#263238"></path></g><g id="freepik--speech-bubble-2--inject-2"><path d="M452.18,99.91a25.72,25.72,0,0,1-43,16.27l-12.87,1.89,6.44-11.13a25.73,25.73,0,1,1,49.41-7Z" style="fill:#fff"></path><path d="M452.18,99.91A26,26,0,0,1,447,113a23.24,23.24,0,0,1-5.05,5,25.49,25.49,0,0,1-6.2,3.46,26.15,26.15,0,0,1-6.93,1.65,25,25,0,0,1-3.57.06,21.4,21.4,0,0,1-3.57-.37A25.92,25.92,0,0,1,409,116.45l.3.09-12.85,2-.94.14.47-.82,6.41-11.15,0,.44a26,26,0,0,1,1.58-22.93A26.35,26.35,0,0,1,412,75.62a26.14,26.14,0,0,1,22.61-3,26.27,26.27,0,0,1,9.92,6.08A25.87,25.87,0,0,1,452.18,99.91Zm0,0A25.43,25.43,0,0,0,423,72.07a25.26,25.26,0,0,0-10.63,4.19,26.66,26.66,0,0,0-7.7,8.4,25.38,25.38,0,0,0-1.45,22.09l.09.23-.12.21-6.48,11.11-.46-.68,12.88-1.81.18,0,.13.12a25.36,25.36,0,0,0,12.32,6.34,22.64,22.64,0,0,0,3.49.43,25.85,25.85,0,0,0,3.52,0,25.3,25.3,0,0,0,6.87-1.51,24,24,0,0,0,6.2-3.35,23.31,23.31,0,0,0,5.06-4.92A25.9,25.9,0,0,0,452.18,99.91Z" style="fill:#263238"></path><path d="M428,100.85v2.7a2,2,0,0,1-2,2,2,2,0,0,1-2-2V99.22s0,0,0-.08,0,0,0-.08a2.1,2.1,0,0,1,2-2,4.66,4.66,0,1,0,0-9.32A4.58,4.58,0,0,0,422,90a2,2,0,0,1-2.83.74,2,2,0,0,1-.71-2.78,8.75,8.75,0,1,1,9.57,12.9Zm0,9.11v.75a2,2,0,0,1-2,2,2,2,0,0,1-2-2V110a2.08,2.08,0,0,1,2-2A2,2,0,0,1,428,110Z" style="fill:#FFC727"></path></g><g id="freepik--speech-bubble-1--inject-2"><path d="M238.7,64.18a25.72,25.72,0,0,1-43,16.28l-12.87,1.88,6.44-11.12a25.73,25.73,0,1,1,49.41-7Z" style="fill:#fff"></path><path d="M238.7,64.18a25.89,25.89,0,0,1-5.19,13,28.24,28.24,0,0,1-2.33,2.69,29.79,29.79,0,0,1-2.72,2.3,26,26,0,0,1-13.13,5.1,23.65,23.65,0,0,1-3.57.07A22.27,22.27,0,0,1,208.2,87a25.91,25.91,0,0,1-12.73-6.28l.3.09-12.85,2-.94.14.48-.82L188.86,71l0,.44a26,26,0,0,1,1.58-22.93,26.36,26.36,0,0,1,8.06-8.58A26,26,0,0,1,238.7,64.18Zm0,0a25.45,25.45,0,0,0-29.17-27.84,25.41,25.41,0,0,0-10.63,4.2,26.52,26.52,0,0,0-7.69,8.4,25.41,25.41,0,0,0-3.27,10.88A25.72,25.72,0,0,0,189.75,71l.1.23-.13.21-6.47,11.1-.47-.68,12.89-1.8.18,0,.12.12a25.38,25.38,0,0,0,12.32,6.35,21.6,21.6,0,0,0,3.49.42,24.33,24.33,0,0,0,3.52,0,25.31,25.31,0,0,0,6.87-1.52,23.89,23.89,0,0,0,6.21-3.34,23.56,23.56,0,0,0,5.05-4.92A25.81,25.81,0,0,0,238.7,64.18Z" style="fill:#263238"></path><polygon points="210.1 76.18 199.12 65.06 202.81 61.41 209.23 67.91 222.56 47 226.94 49.79 210.1 76.18" style="fill:#FFC727"></polygon></g></svg>
